<svg xmlns="http://www.w3.org/2000/svg" version="1.1" xmlns:xlink="http://www.w3.org/1999/xlink" xmlns:svgjs="http://svgjs.dev/svgjs" width="1500" height="1500" viewBox="0 0 1500 1500"><g transform="matrix(1,0,0,1,-0.21332335329316265,-0.21332335329350371)"><svg viewBox="0 0 334 334" data-background-color="#ffffff" preserveAspectRatio="xMidYMid meet" height="1500" width="1500" xmlns="http://www.w3.org/2000/svg" xmlns:xlink="http://www.w3.org/1999/xlink"><g id="tight-bounds" transform="matrix(1,0,0,1,0.04749999999998522,0.04750000000001364)"><svg viewBox="0 0 333.90454557049503 333.90454557049503" height="333.90454557049503" width="333.90454557049503"><g><svg></svg></g><g><svg viewBox="0 0 333.90454557049503 333.90454557049503" height="333.90454557049503" width="333.90454557049503"><g><path d="M0 166.952c0-92.205 74.747-166.952 166.952-166.952 92.205 0 166.952 74.747 166.953 166.952 0 92.205-74.747 166.952-166.953 166.953-92.205 0-166.952-74.747-166.952-166.953zM166.952 316.63c82.665 0 149.677-67.013 149.678-149.678 0-82.665-67.013-149.677-149.678-149.677-82.665 0-149.677 67.013-149.677 149.677 0 82.665 67.013 149.677 149.677 149.678z" data-fill-palette-color="tertiary" fill="#000000" stroke="transparent"></path><ellipse rx="160.27418187383762" ry="160.27418187383762" cx="166.95227278524752" cy="166.95227278524752" fill="#000000" stroke="transparent" stroke-width="0" fill-opacity="1" data-fill-palette-color="tertiary"></ellipse></g><g transform="matrix(1,0,0,1,77.63668055663437,71.17305217166896)"><svg viewBox="0 0 178.63118445722628 191.55844122715712" height="191.55844122715712" width="178.63118445722628"><g><svg viewBox="0 0 178.63118445722628 191.55844122715712" height="191.55844122715712" width="178.63118445722628"><g><svg viewBox="0 0 178.63118445722628 191.55844122715712" height="191.55844122715712" width="178.63118445722628"><g id="textblocktransform"><svg viewBox="0 0 178.63118445722628 191.55844122715712" height="191.55844122715712" width="178.63118445722628" id="textblock"><g><svg viewBox="0 0 178.63118445722628 191.55844122715712" height="191.55844122715712" width="178.63118445722628"><g transform="matrix(1,0,0,1,0,0)"><svg width="178.63118445722628" viewBox="-0.45 -33.9 38 40.75" height="191.55844122715712" data-palette-color="#f9792b"><path d="M-0.45 5.85Q1.95 5.85 3.13 3.3 4.3 0.75 4.3-3.9L4.3-3.9 4.3-33 8.8-33 8.8-3.9Q8.8 0 7.98 2.33 7.15 4.65 5.15 5.75 3.15 6.85-0.45 6.85L-0.45 6.85-0.45 5.85ZM27.15 0.85Q24.4 0.85 21.75 0.1 19.1-0.65 17.42-2.05 15.75-3.45 15.75-5.25L15.75-5.25 15.75-10.6 16.65-10.6Q17.5-5.6 19.95-3.38 22.4-1.15 26.7-1.15L26.7-1.15Q29.4-1.15 31.32-2.5 33.25-3.85 33.25-6.25L33.25-6.25Q33.25-8.35 31.95-9.9 30.65-11.45 27.75-13.15L27.75-13.15 21.6-16.8Q18.4-18.7 17.07-20.65 15.75-22.6 15.75-25.4L15.75-25.4Q15.75-29.25 18.42-31.58 21.1-33.9 25.45-33.9L25.45-33.9Q28-33.9 30.5-33.18 33-32.45 34.62-31.08 36.25-29.7 36.25-27.9L36.25-27.9 36.25-22.55 35.35-22.55Q34.5-27.55 32.12-29.73 29.75-31.9 25.45-31.9L25.45-31.9Q23.15-31.9 21.4-30.5 19.65-29.1 19.65-26.85L19.65-26.85Q19.65-24.8 20.92-23.45 22.2-22.1 25.2-20.3L25.2-20.3 31.35-16.65Q34.75-14.6 36.15-12.85 37.55-11.1 37.55-8.4L37.55-8.4Q37.55-4.2 34.75-1.68 31.95 0.85 27.15 0.85L27.15 0.85Z" opacity="1" transform="matrix(1,0,0,1,0,0)" fill="#f9792b" class="wordmark-text-0" data-fill-palette-color="quaternary" id="text-0"></path></svg></g></svg></g></svg></g></svg></g></svg></g></svg></g></svg></g><defs></defs></svg><rect width="333.90454557049503" height="333.90454557049503" fill="none" stroke="none" visibility="hidden"></rect></g></svg></g></svg>